# xmcd
#
# Track frame offsets:
#	150
#	20580
#	43811
#	70833
#	84626
#	108577
#	127009
#	143041
#	161583
#	179660
#
# Disc length: 2752 seconds
# Revision: 0
# Processed by: cddbd v1.5.2PL0 Copyright (c) Steve Scherf et al.
# Submitted via: dBpowerAMP V12.0
#
DISCID=900abe0a
DTITLE=Chicago Farmer - Midwest Side Stories
DYEAR=2016
DGENRE=Americana
TTITLE0=Umbrella
TTITLE1=Revolving Door
TTITLE2=Rocco N' Susie
TTITLE3=Skateboard Song
TTITLE4=Two Sides of the Story
TTITLE5=New Used Car
TTITLE6=9pm to 5
TTITLE7=Farms and Factories
TTITLE8=Homework
TTITLE9=I'm Still Here
EXTD=
EXTT0=
EXTT1=
EXTT2=
EXTT3=
EXTT4=
EXTT5=
EXTT6=
EXTT7=
EXTT8=
EXTT9=
PLAYORDER=
